<svg version="1.1" xmlns="http://www.w3.org/2000/svg" viewBox="0 0 772.0269079449401 591.4999694824219" width="772.0269079449401" height="591.4999694824219">
  <!-- svg-source:excalidraw -->
  
  <defs>
    <style class="style-fonts">
      @font-face {
        font-family: "Virgil";
        src: url("https://unpkg.com/@excalidraw/excalidraw@0.15.2/dist/excalidraw-assets/Virgil.woff2");
      }
      @font-face {
        font-family: "Cascadia";
        src: url("https://unpkg.com/@excalidraw/excalidraw@0.15.2/dist/excalidraw-assets/Cascadia.woff2");
      }
    </style>
  <path id="pathForText1"><animate attributeName="d" from="m0 0 h0" to="m0 0 h220" begin="1000ms" dur="500ms" fill="freeze"/></path><path id="pathForText2"><animate attributeName="d" from="m0 0 h0" to="m0 0 h138.75994873046875" begin="1500ms" dur="166.66666666666666ms" fill="freeze"/></path><path id="pathForText3"><animate attributeName="d" from="m0 25 h0" to="m0 25 h138.75994873046875" begin="1666.6666666666667ms" dur="166.66666666666666ms" fill="freeze"/></path><path id="pathForText4"><animate attributeName="d" from="m0 50 h0" to="m0 50 h138.75994873046875" begin="1833.3333333333335ms" dur="166.66666666666666ms" fill="freeze"/></path><path id="pathForText5"><animate attributeName="d" from="m0 0 h0" to="m0 0 h60.219970703125" begin="2500ms" dur="500ms" fill="freeze"/></path><path id="pathForText6"><animate attributeName="d" from="m0 0 h0" to="m0 0 h80.53996276855469" begin="3500ms" dur="500ms" fill="freeze"/></path><path id="pathForText7"><animate attributeName="d" from="m0 0 h0" to="m0 0 h98.75994873046875" begin="4500ms" dur="500ms" fill="freeze"/></path><path id="pathForText8"><animate attributeName="d" from="m0 0 h0" to="m0 0 h128.75994873046875" begin="5000ms" dur="500ms" fill="freeze"/></path><path id="pathForText9"><animate attributeName="d" from="m0 0 h0" to="m0 0 h60.219970703125" begin="6000ms" dur="500ms" fill="freeze"/></path><path id="pathForText10"><animate attributeName="d" from="m0 0 h0" to="m0 0 h78.43995666503906" begin="7000ms" dur="500ms" fill="freeze"/></path><path id="pathForText11"><animate attributeName="d" from="m0 0 h0" to="m0 0 h98.75994873046875" begin="8000ms" dur="500ms" fill="freeze"/></path><path id="pathForText12"><animate attributeName="d" from="m0 0 h0" to="m0 0 h178.4599609375" begin="8500ms" dur="500ms" fill="freeze"/></path><path id="pathForText13"><animate attributeName="d" from="m0 0 h0" to="m0 0 h75.63996887207031" begin="9500ms" dur="500ms" fill="freeze"/></path><path id="pathForText14"><animate attributeName="d" from="m0 0 h0" to="m0 0 h95.9599609375" begin="10500ms" dur="500ms" fill="freeze"/></path><path id="pathForText15"><animate attributeName="d" from="m0 0 h0" to="m0 0 h118.4599609375" begin="11500ms" dur="500ms" fill="freeze"/></path><path id="pathForText16"><animate attributeName="d" from="m0 0 h0" to="m0 0 h138.4599609375" begin="12500ms" dur="500ms" fill="freeze"/></path></defs>
  <rect x="0" y="0" width="772.0269079449401" height="591.4999694824219" fill="#ffffff"/><g transform="translate(305.9670019390807 536.4999694824219) rotate(0 110 12.5)"><text x="0" y="0" font-family="Virgil, Segoe UI Emoji" font-size="20px" fill="#e03131" text-anchor="start" style="white-space: pre;" direction="ltr" dominant-baseline="text-before-edge"> <textPath href="#pathForText1">中缀表达式转后缀表达式</textPath></text></g><g transform="translate(30 30) rotate(0 69.37997436523435 37.5)"><text x="0" y="0" font-family="Virgil, Segoe UI Emoji" font-size="20px" fill="#1e1e1e" text-anchor="start" style="white-space: pre;" direction="ltr" dominant-baseline="text-before-edge"> <textPath href="#pathForText2">3  -  5  *  2</textPath></text><text x="0" y="25" font-family="Virgil, Segoe UI Emoji" font-size="20px" fill="#1e1e1e" text-anchor="start" style="white-space: pre;" direction="ltr" dominant-baseline="text-before-edge"> <textPath href="#pathForText3"/></text><text x="0" y="50" font-family="Virgil, Segoe UI Emoji" font-size="20px" fill="#1e1e1e" text-anchor="start" style="white-space: pre;" direction="ltr" dominant-baseline="text-before-edge"> <textPath href="#pathForText4"/></text></g><g stroke-linecap="round"><g transform="translate(105.2000122070312 65.19999694824219) rotate(0 0 41.20000457763672)"><path d="M0 0 C0 0, 0 0, 0 0 M0 0 C0 0, 0 0, 0 0" stroke="#1e1e1e" stroke-width="1" fill="none" opacity="0"><animate attributeName="d" from="M0 0 C0 0, 0 0, 0 0 M0 0 C0 0, 0 0, 0 0" to="M0 0 C0 13.73, 0 68.67, 0 82.4 M0 0 C0 13.73, 0 68.67, 0 82.4" begin="2000ms" dur="300ms" fill="freeze"/><animate attributeName="opacity" from="1" to="1" begin="2000ms" dur="300ms" fill="freeze"/></path></g><g transform="translate(105.2000122070312 65.19999694824219) rotate(0 0 41.20000457763672)"><path d="M-10.26 54.21 C-10.26 54.21, -10.26 54.21, -10.26 54.21 M-10.26 54.21 C-10.26 54.21, -10.26 54.21, -10.26 54.21" stroke="#1e1e1e" stroke-width="1" fill="none" opacity="0"><animate attributeName="d" from="M-10.26 54.21 C-10.26 54.21, -10.26 54.21, -10.26 54.21 M-10.26 54.21 C-10.26 54.21, -10.26 54.21, -10.26 54.21" to="M-10.26 54.21 C-7.17 62.7, -4.08 71.19, 0 82.4 M-10.26 54.21 C-8.1 60.15, -5.94 66.09, 0 82.4" begin="2300ms" dur="100ms" fill="freeze"/><animate attributeName="opacity" from="1" to="1" begin="2300ms" dur="100ms" fill="freeze"/></path></g><g transform="translate(105.2000122070312 65.19999694824219) rotate(0 0 41.20000457763672)"><path d="M10.26 54.21 C10.26 54.21, 10.26 54.21, 10.26 54.21 M10.26 54.21 C10.26 54.21, 10.26 54.21, 10.26 54.21" stroke="#1e1e1e" stroke-width="1" fill="none" opacity="0"><animate attributeName="d" from="M10.26 54.21 C10.26 54.21, 10.26 54.21, 10.26 54.21 M10.26 54.21 C10.26 54.21, 10.26 54.21, 10.26 54.21" to="M10.26 54.21 C7.17 62.7, 4.08 71.19, 0 82.4 M10.26 54.21 C8.1 60.15, 5.94 66.09, 0 82.4" begin="2400ms" dur="100ms" fill="freeze"/><animate attributeName="opacity" from="1" to="1" begin="2400ms" dur="100ms" fill="freeze"/></path></g></g><mask/><g transform="translate(77.20001220703125 158) rotate(0 30.1099853515625 12.5)"><text x="0" y="0" font-family="Virgil, Segoe UI Emoji" font-size="20px" fill="#1e1e1e" text-anchor="start" style="white-space: pre;" direction="ltr" dominant-baseline="text-before-edge"> <textPath href="#pathForText5">3 5 2</textPath></text></g><g stroke-linecap="round"><g transform="translate(109.99999999999994 186.79998779296875) rotate(0 -0.79998779296875 32.40000915527344)"><path d="M0 0 C0 0, 0 0, 0 0 M0 0 C0 0, 0 0, 0 0" stroke="#1e1e1e" stroke-width="1" fill="none" opacity="0"><animate attributeName="d" from="M0 0 C0 0, 0 0, 0 0 M0 0 C0 0, 0 0, 0 0" to="M0 0 C-0.27 10.8, -1.33 54, -1.6 64.8 M0 0 C-0.27 10.8, -1.33 54, -1.6 64.8" begin="3000ms" dur="300ms" fill="freeze"/><animate attributeName="opacity" from="1" to="1" begin="3000ms" dur="300ms" fill="freeze"/></path></g><g transform="translate(109.99999999999994 186.79998779296875) rotate(0 -0.79998779296875 32.40000915527344)"><path d="M-11.16 36.36 C-11.16 36.36, -11.16 36.36, -11.16 36.36 M-11.16 36.36 C-11.16 36.36, -11.16 36.36, -11.16 36.36" stroke="#1e1e1e" stroke-width="1" fill="none" opacity="0"><animate attributeName="d" from="M-11.16 36.36 C-11.16 36.36, -11.16 36.36, -11.16 36.36 M-11.16 36.36 C-11.16 36.36, -11.16 36.36, -11.16 36.36" to="M-11.16 36.36 C-7.66 46.77, -4.16 57.18, -1.6 64.8 M-11.16 36.36 C-7.81 46.33, -4.46 56.3, -1.6 64.8" begin="3300ms" dur="100ms" fill="freeze"/><animate attributeName="opacity" from="1" to="1" begin="3300ms" dur="100ms" fill="freeze"/></path></g><g transform="translate(109.99999999999994 186.79998779296875) rotate(0 -0.79998779296875 32.40000915527344)"><path d="M9.35 36.87 C9.35 36.87, 9.35 36.87, 9.35 36.87 M9.35 36.87 C9.35 36.87, 9.35 36.87, 9.35 36.87" stroke="#1e1e1e" stroke-width="1" fill="none" opacity="0"><animate attributeName="d" from="M9.35 36.87 C9.35 36.87, 9.35 36.87, 9.35 36.87 M9.35 36.87 C9.35 36.87, 9.35 36.87, 9.35 36.87" to="M9.35 36.87 C5.34 47.09, 1.33 57.32, -1.6 64.8 M9.35 36.87 C5.51 46.66, 1.67 56.45, -1.6 64.8" begin="3400ms" dur="100ms" fill="freeze"/><animate attributeName="opacity" from="1" to="1" begin="3400ms" dur="100ms" fill="freeze"/></path></g></g><mask/><g transform="translate(72.4000244140625 270) rotate(0 40.269981384277315 12.5)"><text x="0" y="0" font-family="Virgil, Segoe UI Emoji" font-size="20px" fill="#1e1e1e" text-anchor="start" style="white-space: pre;" direction="ltr" dominant-baseline="text-before-edge"> <textPath href="#pathForText6">3 5 2 *</textPath></text></g><g stroke-linecap="round"><g transform="translate(107.6000366210937 301.1999816894531) rotate(0 0 31.199996948242188)"><path d="M0 0 C0 0, 0 0, 0 0 M0 0 C0 0, 0 0, 0 0" stroke="#1e1e1e" stroke-width="1" fill="none" opacity="0"><animate attributeName="d" from="M0 0 C0 0, 0 0, 0 0 M0 0 C0 0, 0 0, 0 0" to="M0 0 C0 10.4, 0 52, 0 62.4 M0 0 C0 10.4, 0 52, 0 62.4" begin="4000ms" dur="300ms" fill="freeze"/><animate attributeName="opacity" from="1" to="1" begin="4000ms" dur="300ms" fill="freeze"/></path></g><g transform="translate(107.6000366210937 301.1999816894531) rotate(0 0 31.199996948242188)"><path d="M-10.26 34.21 C-10.26 34.21, -10.26 34.21, -10.26 34.21 M-10.26 34.21 C-10.26 34.21, -10.26 34.21, -10.26 34.21" stroke="#1e1e1e" stroke-width="1" fill="none" opacity="0"><animate attributeName="d" from="M-10.26 34.21 C-10.26 34.21, -10.26 34.21, -10.26 34.21 M-10.26 34.21 C-10.26 34.21, -10.26 34.21, -10.26 34.21" to="M-10.26 34.21 C-6.79 43.75, -3.32 53.29, 0 62.4 M-10.26 34.21 C-7.18 42.67, -4.1 51.14, 0 62.4" begin="4300ms" dur="100ms" fill="freeze"/><animate attributeName="opacity" from="1" to="1" begin="4300ms" dur="100ms" fill="freeze"/></path></g><g transform="translate(107.6000366210937 301.1999816894531) rotate(0 0 31.199996948242188)"><path d="M10.26 34.21 C10.26 34.21, 10.26 34.21, 10.26 34.21 M10.26 34.21 C10.26 34.21, 10.26 34.21, 10.26 34.21" stroke="#1e1e1e" stroke-width="1" fill="none" opacity="0"><animate attributeName="d" from="M10.26 34.21 C10.26 34.21, 10.26 34.21, 10.26 34.21 M10.26 34.21 C10.26 34.21, 10.26 34.21, 10.26 34.21" to="M10.26 34.21 C6.79 43.75, 3.32 53.29, 0 62.4 M10.26 34.21 C7.18 42.67, 4.1 51.14, 0 62.4" begin="4400ms" dur="100ms" fill="freeze"/><animate attributeName="opacity" from="1" to="1" begin="4400ms" dur="100ms" fill="freeze"/></path></g></g><mask/><g transform="translate(72.4000244140625 383.5999755859375) rotate(0 49.37997436523435 12.5)"><text x="0" y="0" font-family="Virgil, Segoe UI Emoji" font-size="20px" fill="#1e1e1e" text-anchor="start" style="white-space: pre;" direction="ltr" dominant-baseline="text-before-edge"> <textPath href="#pathForText7">3 5 2 * -</textPath></text></g><g transform="translate(301.3669958355651 33.09999084472656) rotate(0 64.37997436523438 12.5)"><text x="0" y="0" font-family="Virgil, Segoe UI Emoji" font-size="20px" fill="#1e1e1e" text-anchor="start" style="white-space: pre;" direction="ltr" dominant-baseline="text-before-edge"> <textPath href="#pathForText8">（3 - 5）* 2</textPath></text></g><g stroke-linecap="round"><g transform="translate(367.5669470074401 62.10002136230469) rotate(0 0 37.199989318847656)"><path d="M0 0 C0 0, 0 0, 0 0 M0 0 C0 0, 0 0, 0 0" stroke="#1e1e1e" stroke-width="1" fill="none" opacity="0"><animate attributeName="d" from="M0 0 C0 0, 0 0, 0 0 M0 0 C0 0, 0 0, 0 0" to="M0 0 C0 12.4, 0 62, 0 74.4 M0 0 C0 12.4, 0 62, 0 74.4" begin="5500ms" dur="300ms" fill="freeze"/><animate attributeName="opacity" from="1" to="1" begin="5500ms" dur="300ms" fill="freeze"/></path></g><g transform="translate(367.5669470074401 62.10002136230469) rotate(0 0 37.199989318847656)"><path d="M-10.26 46.21 C-10.26 46.21, -10.26 46.21, -10.26 46.21 M-10.26 46.21 C-10.26 46.21, -10.26 46.21, -10.26 46.21" stroke="#1e1e1e" stroke-width="1" fill="none" opacity="0"><animate attributeName="d" from="M-10.26 46.21 C-10.26 46.21, -10.26 46.21, -10.26 46.21 M-10.26 46.21 C-10.26 46.21, -10.26 46.21, -10.26 46.21" to="M-10.26 46.21 C-7.19 54.65, -4.12 63.09, 0 74.4 M-10.26 46.21 C-6.69 56.01, -3.13 65.81, 0 74.4" begin="5800ms" dur="100ms" fill="freeze"/><animate attributeName="opacity" from="1" to="1" begin="5800ms" dur="100ms" fill="freeze"/></path></g><g transform="translate(367.5669470074401 62.10002136230469) rotate(0 0 37.199989318847656)"><path d="M10.26 46.21 C10.26 46.21, 10.26 46.21, 10.26 46.21 M10.26 46.21 C10.26 46.21, 10.26 46.21, 10.26 46.21" stroke="#1e1e1e" stroke-width="1" fill="none" opacity="0"><animate attributeName="d" from="M10.26 46.21 C10.26 46.21, 10.26 46.21, 10.26 46.21 M10.26 46.21 C10.26 46.21, 10.26 46.21, 10.26 46.21" to="M10.26 46.21 C7.19 54.65, 4.12 63.09, 0 74.4 M10.26 46.21 C6.69 56.01, 3.13 65.81, 0 74.4" begin="5900ms" dur="100ms" fill="freeze"/><animate attributeName="opacity" from="1" to="1" begin="5900ms" dur="100ms" fill="freeze"/></path></g></g><mask/><g transform="translate(335.5669470074401 155.70001220703125) rotate(0 30.1099853515625 12.5)"><text x="0" y="0" font-family="Virgil, Segoe UI Emoji" font-size="20px" fill="#1e1e1e" text-anchor="start" style="white-space: pre;" direction="ltr" dominant-baseline="text-before-edge"> <textPath href="#pathForText9">3 5 2</textPath></text></g><g stroke-linecap="round"><g transform="translate(365.9669714215026 183.69998168945312) rotate(0 0 31.20001220703125)"><path d="M0 0 C0 0, 0 0, 0 0 M0 0 C0 0, 0 0, 0 0" stroke="#1e1e1e" stroke-width="1" fill="none" opacity="0"><animate attributeName="d" from="M0 0 C0 0, 0 0, 0 0 M0 0 C0 0, 0 0, 0 0" to="M0 0 C0 10.4, 0 52, 0 62.4 M0 0 C0 10.4, 0 52, 0 62.4" begin="6500ms" dur="300ms" fill="freeze"/><animate attributeName="opacity" from="1" to="1" begin="6500ms" dur="300ms" fill="freeze"/></path></g><g transform="translate(365.9669714215026 183.69998168945312) rotate(0 0 31.20001220703125)"><path d="M-10.26 34.21 C-10.26 34.21, -10.26 34.21, -10.26 34.21 M-10.26 34.21 C-10.26 34.21, -10.26 34.21, -10.26 34.21" stroke="#1e1e1e" stroke-width="1" fill="none" opacity="0"><animate attributeName="d" from="M-10.26 34.21 C-10.26 34.21, -10.26 34.21, -10.26 34.21 M-10.26 34.21 C-10.26 34.21, -10.26 34.21, -10.26 34.21" to="M-10.26 34.21 C-7.78 41.01, -5.31 47.81, 0 62.4 M-10.26 34.21 C-7.55 41.66, -4.84 49.1, 0 62.4" begin="6800ms" dur="100ms" fill="freeze"/><animate attributeName="opacity" from="1" to="1" begin="6800ms" dur="100ms" fill="freeze"/></path></g><g transform="translate(365.9669714215026 183.69998168945312) rotate(0 0 31.20001220703125)"><path d="M10.26 34.21 C10.26 34.21, 10.26 34.21, 10.26 34.21 M10.26 34.21 C10.26 34.21, 10.26 34.21, 10.26 34.21" stroke="#1e1e1e" stroke-width="1" fill="none" opacity="0"><animate attributeName="d" from="M10.26 34.21 C10.26 34.21, 10.26 34.21, 10.26 34.21 M10.26 34.21 C10.26 34.21, 10.26 34.21, 10.26 34.21" to="M10.26 34.21 C7.78 41.01, 5.31 47.81, 0 62.4 M10.26 34.21 C7.55 41.66, 4.84 49.1, 0 62.4" begin="6900ms" dur="100ms" fill="freeze"/><animate attributeName="opacity" from="1" to="1" begin="6900ms" dur="100ms" fill="freeze"/></path></g></g><mask/><g transform="translate(333.9669714215026 272.5) rotate(0 39.21997833251953 12.5)"><text x="0" y="0" font-family="Virgil, Segoe UI Emoji" font-size="20px" fill="#1e1e1e" text-anchor="start" style="white-space: pre;" direction="ltr" dominant-baseline="text-before-edge"> <textPath href="#pathForText10">3 5 - 2</textPath></text></g><g stroke-linecap="round"><g transform="translate(364.05904246921085 306.1000061035156) rotate(0 -0.018020006825281598 29.599990844726562)"><path d="M0 0 C0 0, 0 0, 0 0 M0 0 C0 0, 0 0, 0 0" stroke="#1e1e1e" stroke-width="1" fill="none" opacity="0"><animate attributeName="d" from="M0 0 C0 0, 0 0, 0 0 M0 0 C0 0, 0 0, 0 0" to="M0 0 C-0.01 9.87, -0.03 49.33, -0.04 59.2 M0 0 C-0.01 9.87, -0.03 49.33, -0.04 59.2" begin="7500ms" dur="300ms" fill="freeze"/><animate attributeName="opacity" from="1" to="1" begin="7500ms" dur="300ms" fill="freeze"/></path></g><g transform="translate(364.05904246921085 306.1000061035156) rotate(0 -0.018020006825281598 29.599990844726562)"><path d="M-10.14 31.38 C-10.14 31.38, -10.14 31.38, -10.14 31.38 M-10.14 31.38 C-10.14 31.38, -10.14 31.38, -10.14 31.38" stroke="#1e1e1e" stroke-width="1" fill="none" opacity="0"><animate attributeName="d" from="M-10.14 31.38 C-10.14 31.38, -10.14 31.38, -10.14 31.38 M-10.14 31.38 C-10.14 31.38, -10.14 31.38, -10.14 31.38" to="M-10.14 31.38 C-6.14 42.39, -2.14 53.41, -0.04 59.2 M-10.14 31.38 C-6.91 40.28, -3.68 49.18, -0.04 59.2" begin="7800ms" dur="100ms" fill="freeze"/><animate attributeName="opacity" from="1" to="1" begin="7800ms" dur="100ms" fill="freeze"/></path></g><g transform="translate(364.05904246921085 306.1000061035156) rotate(0 -0.018020006825281598 29.599990844726562)"><path d="M10.1 31.39 C10.1 31.39, 10.1 31.39, 10.1 31.39 M10.1 31.39 C10.1 31.39, 10.1 31.39, 10.1 31.39" stroke="#1e1e1e" stroke-width="1" fill="none" opacity="0"><animate attributeName="d" from="M10.1 31.39 C10.1 31.39, 10.1 31.39, 10.1 31.39 M10.1 31.39 C10.1 31.39, 10.1 31.39, 10.1 31.39" to="M10.1 31.39 C6.09 42.4, 2.07 53.41, -0.04 59.2 M10.1 31.39 C6.86 40.29, 3.62 49.18, -0.04 59.2" begin="7900ms" dur="100ms" fill="freeze"/><animate attributeName="opacity" from="1" to="1" begin="7900ms" dur="100ms" fill="freeze"/></path></g></g><mask/><g transform="translate(318.76695921447134 380.5000915527344) rotate(0 49.379974365234375 12.5)"><text x="0" y="0" font-family="Virgil, Segoe UI Emoji" font-size="20px" fill="#1e1e1e" text-anchor="start" style="white-space: pre;" direction="ltr" dominant-baseline="text-before-edge"> <textPath href="#pathForText11">3 5 - 2 *</textPath></text></g><g transform="translate(563.5669470074401 36.5) rotate(0 89.22998046875 12.5)"><text x="0" y="0" font-family="Virgil, Segoe UI Emoji" font-size="20px" fill="#1e1e1e" text-anchor="start" style="white-space: pre;" direction="ltr" dominant-baseline="text-before-edge"> <textPath href="#pathForText12">3 / （5 * 2 + 1）</textPath></text></g><g stroke-linecap="round"><g transform="translate(641.0893478962539 69.29998779296875) rotate(0 0.7734862481120786 32)"><path d="M0 0 C0 0, 0 0, 0 0 M0 0 C0 0, 0 0, 0 0" stroke="#1e1e1e" stroke-width="1" fill="none" opacity="0"><animate attributeName="d" from="M0 0 C0 0, 0 0, 0 0 M0 0 C0 0, 0 0, 0 0" to="M0 0 C0.26 10.67, 1.29 53.33, 1.55 64 M0 0 C0.26 10.67, 1.29 53.33, 1.55 64" begin="9000ms" dur="300ms" fill="freeze"/><animate attributeName="opacity" from="1" to="1" begin="9000ms" dur="300ms" fill="freeze"/></path></g><g transform="translate(641.0893478962539 69.29998779296875) rotate(0 0.7734862481120786 32)"><path d="M-9.39 36.07 C-9.39 36.07, -9.39 36.07, -9.39 36.07 M-9.39 36.07 C-9.39 36.07, -9.39 36.07, -9.39 36.07" stroke="#1e1e1e" stroke-width="1" fill="none" opacity="0"><animate attributeName="d" from="M-9.39 36.07 C-9.39 36.07, -9.39 36.07, -9.39 36.07 M-9.39 36.07 C-9.39 36.07, -9.39 36.07, -9.39 36.07" to="M-9.39 36.07 C-6.59 43.22, -3.79 50.38, 1.55 64 M-9.39 36.07 C-6.43 43.63, -3.47 51.19, 1.55 64" begin="9300ms" dur="100ms" fill="freeze"/><animate attributeName="opacity" from="1" to="1" begin="9300ms" dur="100ms" fill="freeze"/></path></g><g transform="translate(641.0893478962539 69.29998779296875) rotate(0 0.7734862481120786 32)"><path d="M11.12 35.57 C11.12 35.57, 11.12 35.57, 11.12 35.57 M11.12 35.57 C11.12 35.57, 11.12 35.57, 11.12 35.57" stroke="#1e1e1e" stroke-width="1" fill="none" opacity="0"><animate attributeName="d" from="M11.12 35.57 C11.12 35.57, 11.12 35.57, 11.12 35.57 M11.12 35.57 C11.12 35.57, 11.12 35.57, 11.12 35.57" to="M11.12 35.57 C8.67 42.85, 6.22 50.13, 1.55 64 M11.12 35.57 C8.53 43.27, 5.94 50.97, 1.55 64" begin="9400ms" dur="100ms" fill="freeze"/><animate attributeName="opacity" from="1" to="1" begin="9400ms" dur="100ms" fill="freeze"/></path></g></g><mask/><g transform="translate(595.5670080425964 147.69998168945312) rotate(0 37.819984436035156 12.5)"><text x="0" y="0" font-family="Virgil, Segoe UI Emoji" font-size="20px" fill="#1e1e1e" text-anchor="start" style="white-space: pre;" direction="ltr" dominant-baseline="text-before-edge"> <textPath href="#pathForText13">3 5 2 1</textPath></text></g><g stroke-linecap="round"><g transform="translate(643.5669470074401 172.5) rotate(0 -0.79998779296875 33.59999084472656)"><path d="M0 0 C0 0, 0 0, 0 0 M0 0 C0 0, 0 0, 0 0" stroke="#1e1e1e" stroke-width="1" fill="none" opacity="0"><animate attributeName="d" from="M0 0 C0 0, 0 0, 0 0 M0 0 C0 0, 0 0, 0 0" to="M0 0 C-0.27 11.2, -1.33 56, -1.6 67.2 M0 0 C-0.27 11.2, -1.33 56, -1.6 67.2" begin="10000ms" dur="300ms" fill="freeze"/><animate attributeName="opacity" from="1" to="1" begin="10000ms" dur="300ms" fill="freeze"/></path></g><g transform="translate(643.5669470074401 172.5) rotate(0 -0.79998779296875 33.59999084472656)"><path d="M-11.19 38.77 C-11.19 38.77, -11.19 38.77, -11.19 38.77 M-11.19 38.77 C-11.19 38.77, -11.19 38.77, -11.19 38.77" stroke="#1e1e1e" stroke-width="1" fill="none" opacity="0"><animate attributeName="d" from="M-11.19 38.77 C-11.19 38.77, -11.19 38.77, -11.19 38.77 M-11.19 38.77 C-11.19 38.77, -11.19 38.77, -11.19 38.77" to="M-11.19 38.77 C-8.92 45.5, -6.65 52.22, -1.6 67.2 M-11.19 38.77 C-7.82 48.75, -4.46 58.72, -1.6 67.2" begin="10300ms" dur="100ms" fill="freeze"/><animate attributeName="opacity" from="1" to="1" begin="10300ms" dur="100ms" fill="freeze"/></path></g><g transform="translate(643.5669470074401 172.5) rotate(0 -0.79998779296875 33.59999084472656)"><path d="M9.33 39.26 C9.33 39.26, 9.33 39.26, 9.33 39.26 M9.33 39.26 C9.33 39.26, 9.33 39.26, 9.33 39.26" stroke="#1e1e1e" stroke-width="1" fill="none" opacity="0"><animate attributeName="d" from="M9.33 39.26 C9.33 39.26, 9.33 39.26, 9.33 39.26 M9.33 39.26 C9.33 39.26, 9.33 39.26, 9.33 39.26" to="M9.33 39.26 C6.74 45.87, 4.16 52.48, -1.6 67.2 M9.33 39.26 C5.49 49.07, 1.66 58.87, -1.6 67.2" begin="10400ms" dur="100ms" fill="freeze"/><animate attributeName="opacity" from="1" to="1" begin="10400ms" dur="100ms" fill="freeze"/></path></g></g><mask/><g transform="translate(591.5669470074401 263.6999206542969) rotate(0 47.97998046875 12.5)"><text x="0" y="0" font-family="Virgil, Segoe UI Emoji" font-size="20px" fill="#1e1e1e" text-anchor="start" style="white-space: pre;" direction="ltr" dominant-baseline="text-before-edge"> <textPath href="#pathForText14">3 5 2 * 1</textPath></text></g><g stroke-linecap="round"><g transform="translate(643.5669470074401 296.5) rotate(0 -0.399993896484375 36)"><path d="M0 0 C0 0, 0 0, 0 0 M0 0 C0 0, 0 0, 0 0" stroke="#1e1e1e" stroke-width="1" fill="none" opacity="0"><animate attributeName="d" from="M0 0 C0 0, 0 0, 0 0 M0 0 C0 0, 0 0, 0 0" to="M0 0 C-0.13 12, -0.67 60, -0.8 72 M0 0 C-0.13 12, -0.67 60, -0.8 72" begin="11000ms" dur="300ms" fill="freeze"/><animate attributeName="opacity" from="1" to="1" begin="11000ms" dur="300ms" fill="freeze"/></path></g><g transform="translate(643.5669470074401 296.5) rotate(0 -0.399993896484375 36)"><path d="M-10.75 43.7 C-10.75 43.7, -10.75 43.7, -10.75 43.7 M-10.75 43.7 C-10.75 43.7, -10.75 43.7, -10.75 43.7" stroke="#1e1e1e" stroke-width="1" fill="none" opacity="0"><animate attributeName="d" from="M-10.75 43.7 C-10.75 43.7, -10.75 43.7, -10.75 43.7 M-10.75 43.7 C-10.75 43.7, -10.75 43.7, -10.75 43.7" to="M-10.75 43.7 C-8.53 50, -6.32 56.3, -0.8 72 M-10.75 43.7 C-8.25 50.8, -5.76 57.9, -0.8 72" begin="11300ms" dur="100ms" fill="freeze"/><animate attributeName="opacity" from="1" to="1" begin="11300ms" dur="100ms" fill="freeze"/></path></g><g transform="translate(643.5669470074401 296.5) rotate(0 -0.399993896484375 36)"><path d="M9.77 43.92 C9.77 43.92, 9.77 43.92, 9.77 43.92 M9.77 43.92 C9.77 43.92, 9.77 43.92, 9.77 43.92" stroke="#1e1e1e" stroke-width="1" fill="none" opacity="0"><animate attributeName="d" from="M9.77 43.92 C9.77 43.92, 9.77 43.92, 9.77 43.92 M9.77 43.92 C9.77 43.92, 9.77 43.92, 9.77 43.92" to="M9.77 43.92 C7.42 50.18, 5.07 56.43, -0.8 72 M9.77 43.92 C7.12 50.97, 4.47 58.01, -0.8 72" begin="11400ms" dur="100ms" fill="freeze"/><animate attributeName="opacity" from="1" to="1" begin="11400ms" dur="100ms" fill="freeze"/></path></g></g><mask/><g transform="translate(592.3669348004089 386.0999755859375) rotate(0 59.22998046875 12.5)"><text x="0" y="0" font-family="Virgil, Segoe UI Emoji" font-size="20px" fill="#1e1e1e" text-anchor="start" style="white-space: pre;" direction="ltr" dominant-baseline="text-before-edge"> <textPath href="#pathForText15">3 5 2 * 1 +</textPath></text></g><g stroke-linecap="round"><g transform="translate(644.3669348004089 407.70001220703125) rotate(0 0 30)"><path d="M0 0 C0 0, 0 0, 0 0 M0 0 C0 0, 0 0, 0 0" stroke="#1e1e1e" stroke-width="1" fill="none" opacity="0"><animate attributeName="d" from="M0 0 C0 0, 0 0, 0 0 M0 0 C0 0, 0 0, 0 0" to="M0 0 C0 10, 0 50, 0 60 M0 0 C0 10, 0 50, 0 60" begin="12000ms" dur="300ms" fill="freeze"/><animate attributeName="opacity" from="1" to="1" begin="12000ms" dur="300ms" fill="freeze"/></path></g><g transform="translate(644.3669348004089 407.70001220703125) rotate(0 0 30)"><path d="M-10.26 31.81 C-10.26 31.81, -10.26 31.81, -10.26 31.81 M-10.26 31.81 C-10.26 31.81, -10.26 31.81, -10.26 31.81" stroke="#1e1e1e" stroke-width="1" fill="none" opacity="0"><animate attributeName="d" from="M-10.26 31.81 C-10.26 31.81, -10.26 31.81, -10.26 31.81 M-10.26 31.81 C-10.26 31.81, -10.26 31.81, -10.26 31.81" to="M-10.26 31.81 C-7.35 39.82, -4.43 47.83, 0 60 M-10.26 31.81 C-7.81 38.54, -5.36 45.28, 0 60" begin="12300ms" dur="100ms" fill="freeze"/><animate attributeName="opacity" from="1" to="1" begin="12300ms" dur="100ms" fill="freeze"/></path></g><g transform="translate(644.3669348004089 407.70001220703125) rotate(0 0 30)"><path d="M10.26 31.81 C10.26 31.81, 10.26 31.81, 10.26 31.81 M10.26 31.81 C10.26 31.81, 10.26 31.81, 10.26 31.81" stroke="#1e1e1e" stroke-width="1" fill="none" opacity="0"><animate attributeName="d" from="M10.26 31.81 C10.26 31.81, 10.26 31.81, 10.26 31.81 M10.26 31.81 C10.26 31.81, 10.26 31.81, 10.26 31.81" to="M10.26 31.81 C7.35 39.82, 4.43 47.83, 0 60 M10.26 31.81 C7.81 38.54, 5.36 45.28, 0 60" begin="12400ms" dur="100ms" fill="freeze"/><animate attributeName="opacity" from="1" to="1" begin="12400ms" dur="100ms" fill="freeze"/></path></g></g><mask/><g transform="translate(595.5669470074401 485.5) rotate(0 69.22998046875 12.5)"><text x="0" y="0" font-family="Virgil, Segoe UI Emoji" font-size="20px" fill="#1e1e1e" text-anchor="start" style="white-space: pre;" direction="ltr" dominant-baseline="text-before-edge"> <textPath href="#pathForText16">3 5 2 * 1 + /</textPath></text></g></svg>